<svg width="40" height="73" viewBox="0 0 40 73" fill="none" xmlns="http://www.w3.org/2000/svg">
<path d="M6.0803 14C6.3303 14.5 6.8403 14.82 7.4003 14.82C7.9603 14.82 8.4703 14.5 8.7203 14L14.6603 2.14C14.8903 1.68 14.8603 1.14 14.5903 0.7C14.3203 0.26 13.8403 0 13.3303 0H1.4803C0.970301 0 0.490301 0.27 0.220301 0.7C-0.0496993 1.14 -0.0696993 1.68 0.150301 2.14L6.0803 14ZM10.9403 2.96L7.4103 10.03L3.8803 2.96H10.9403ZM7.4103 43.48C9.3803 43.48 11.2603 42.7 12.6503 41.31C14.0403 39.92 14.8203 38.03 14.8203 36.07C14.8203 34.11 14.0403 32.22 12.6503 30.83C11.2603 29.44 9.3703 28.66 7.4103 28.66C5.4503 28.66 3.5603 29.44 2.1703 30.83C0.780301 32.22 0.000300889 34.11 0.000300889 36.07C0.000300889 38.03 0.780301 39.92 2.1703 41.31C3.5603 42.7 5.4403 43.48 7.4103 43.48ZM7.4103 31.62C8.5903 31.62 9.7203 32.09 10.5603 32.92C11.3903 33.75 11.8603 34.89 11.8603 36.07C11.8603 37.25 11.3903 38.38 10.5603 39.22C9.7303 40.05 8.5903 40.52 7.4103 40.52C6.2303 40.52 5.1003 40.05 4.2603 39.22C3.4303 38.39 2.9603 37.25 2.9603 36.07C2.9603 34.89 3.4303 33.76 4.2603 32.92C5.0903 32.09 6.2303 31.62 7.4103 31.62ZM1.4803 72.14H13.3403C14.1603 72.14 14.8203 71.48 14.8203 70.66V58.8C14.8203 57.98 14.1603 57.32 13.3403 57.32H1.4803C0.660301 57.32 0.000300889 57.98 0.000300889 58.8V70.66C0.000300889 71.48 0.660301 72.14 1.4803 72.14ZM2.9603 60.28H11.8603V69.18H2.9603V60.28ZM26.6803 63.25V37.55H18.2803C17.4603 37.55 16.8003 36.89 16.8003 36.07C16.8003 35.25 17.4603 34.59 18.2803 34.59H26.6803V8.89H18.2803C17.4603 8.89 16.8003 8.23 16.8003 7.41C16.8003 6.59 17.4603 5.93 18.2803 5.93H28.1603C28.9803 5.93 29.6403 6.59 29.6403 7.41V34.59H38.0403C38.8603 34.59 39.5203 35.25 39.5203 36.07C39.5203 36.89 38.8603 37.55 38.0403 37.55H29.6403V64.73C29.6403 65.55 28.9803 66.21 28.1603 66.21H18.2803C17.4603 66.21 16.8003 65.55 16.8003 64.73C16.8003 63.91 17.4603 63.25 18.2803 63.25H26.6803Z" fill="white"/>
</svg>
